<svg xmlns="http://www.w3.org/2000/svg" viewBox="0 0 32 32">
  <rect width="32" height="32" rx="6" fill="#1a2e38"/>
  <g transform="translate(4.8, 8.5) scale(0.039)">
    <path d="M380.184 362.164C354.02 286.348 325.3 204.447 298.284 125.346C293.051 110.377 280.273 110.499 275.04 124.615C257.394 172.928 241.452 217.347 225.997 261.4C214.436 294.623 202.997 327.602 191.436 361.677C183.525 384.921 162.229 383.46 154.805 361.677C123.652 270.893 92.8628 183.637 60.3703 99.7897C44.3066 58.4135 39.5605 53.6674 10.5971 43.6884C-4.73643 37.9688 -4.85812 13.7515 19.7242 14.36C58.7883 15.2119 94.8099 15.2119 132.779 14.36C148.721 14.1166 152.858 36.7518 137.403 42.4715C110.63 50.9901 105.762 61.0908 115.985 90.4192C135.821 148.103 150.79 190.087 174.398 255.559C178.901 267.363 190.705 266.877 194.843 255.194C213.706 202.257 229.648 156.986 245.225 111.959C254.96 83.3609 264.696 54.8844 274.797 24.4607C282.463 2.4339 311.548 0.851879 320.189 24.8258C345.501 98.5728 371.422 172.685 396.613 245.945C402.333 262.496 414.624 262.496 420.222 247.162C443.344 182.664 457.582 142.14 475.228 91.0277C485.815 60.2389 478.149 52.3288 443.831 43.6884C425.455 38.4556 429.957 14.2383 450.28 14.2383C484.112 14.7251 520.742 15.2119 555.303 14.2383C572.219 13.9949 578.912 37.1169 560.293 43.5667C525.853 53.9108 522.08 60.7257 511.006 91.6362C491.413 145.669 471.699 200.918 452.471 255.924C440.058 291.459 428.01 326.751 416.206 361.677C408.904 383.947 387.608 383.947 380.184 362.164Z" fill="#ffffff"/>
  </g>
</svg>
